<svg xmlns="http://www.w3.org/2000/svg" viewBox="0 0 1600 700" preserveAspectRatio="xMidYMid slice">
  <defs>
    <linearGradient id="bgGrad" x1="0%" y1="0%" x2="100%" y2="100%">
      <stop offset="0%" stop-color="#002d72" />
      <stop offset="55%" stop-color="#00459b" />
      <stop offset="100%" stop-color="#0072ce" />
    </linearGradient>
    <radialGradient id="glow1" cx="50%" cy="50%" r="50%">
      <stop offset="0%" stop-color="#5fa8ff" stop-opacity="0.55" />
      <stop offset="100%" stop-color="#5fa8ff" stop-opacity="0" />
    </radialGradient>
    <radialGradient id="glow2" cx="50%" cy="50%" r="50%">
      <stop offset="0%" stop-color="#ffffff" stop-opacity="0.35" />
      <stop offset="100%" stop-color="#ffffff" stop-opacity="0" />
    </radialGradient>
    <filter id="blurSoft" x="-50%" y="-50%" width="200%" height="200%">
      <feGaussianBlur stdDeviation="40" />
    </filter>
  </defs>

  <rect width="1600" height="700" fill="url(#bgGrad)" />

  <circle cx="1280" cy="160" r="260" fill="url(#glow1)" filter="url(#blurSoft)" />
  <circle cx="260" cy="560" r="220" fill="url(#glow2)" filter="url(#blurSoft)" />
  <circle cx="1420" cy="560" r="160" fill="url(#glow2)" filter="url(#blurSoft)" />

  <g opacity="0.14" stroke="#ffffff" stroke-width="10" fill="none">
    <circle cx="1180" cy="120" r="230" />
    <circle cx="1180" cy="120" r="330" />
  </g>

  <g opacity="0.5" stroke="#8fc4ff" stroke-width="4" fill="none" stroke-linecap="round" stroke-linejoin="round">
    <path d="M -50 470 L 260 470 L 310 380 L 370 560 L 430 300 L 490 470 L 560 470 L 610 420 L 660 470 L 1650 470" />
  </g>
  <g opacity="0.9" stroke="#ffffff" stroke-width="5" fill="none" stroke-linecap="round" stroke-linejoin="round">
    <path d="M -50 520 L 260 520 L 310 430 L 370 610 L 430 350 L 490 520 L 560 520 L 610 470 L 660 520 L 1650 520" />
  </g>

  <g opacity="0.10" fill="#ffffff">
    <rect x="1440" y="80" width="90" height="26" rx="6" />
    <rect x="1471" y="49" width="26" height="90" rx="6" />
  </g>
  <g opacity="0.08" fill="#ffffff">
    <rect x="90" y="90" width="60" height="18" rx="4" />
    <rect x="111" y="69" width="18" height="60" rx="4" />
  </g>
</svg>
