<svg width="64" height="64" viewBox="0 0 64 64" fill="none" xmlns="http://www.w3.org/2000/svg">
  <defs>
    <linearGradient id="merionLogoGradient" x1="4" y1="4" x2="60" y2="60" gradientUnits="userSpaceOnUse">
      <stop offset="0%" stop-color="#2FA875"/>
      <stop offset="100%" stop-color="#0F6B47"/>
    </linearGradient>
  </defs>

  <rect x="2" y="2" width="60" height="60" rx="18" fill="url(#merionLogoGradient)"/>

  <!-- 건강 한걸음: stylized footstep path -->
  <path
    d="M24 17c-3 0-4.6 2.3-4.6 5.1 0 2.6 1.6 4.3 1.3 6.9-.3 2.8-3.2 3.6-3.2 7 0 3.4 2.6 5.2 5.6 5.2 3.6 0 5.2-2.6 5.2-6 0-3.1-1.6-4.6-1.4-7.5.2-2.7 2.5-3.6 2.5-6.8 0-2.5-1.8-3.9-4-3.9z"
    fill="#ffffff"
  />
  <path
    d="M42 26c-2.6 0-4 2-4 4.4 0 2.2 1.4 3.7 1.1 6-.3 2.4-2.8 3.1-2.8 6 0 2.9 2.2 4.5 4.8 4.5 3.1 0 4.5-2.2 4.5-5.2 0-2.7-1.4-4-1.2-6.5.2-2.3 2.2-3.1 2.2-5.9 0-2.2-1.6-3.3-3.6-3.3z"
    fill="#ffffff"
    fill-opacity="0.85"
  />
</svg>
