<svg width="240" height="280" viewBox="0 0 240 280" fill="none" xmlns="http://www.w3.org/2000/svg" role="img" aria-label="모모 캐릭터">
  <defs>
    <linearGradient id="momoBg" x1="0" y1="0" x2="240" y2="280" gradientUnits="userSpaceOnUse">
      <stop offset="0%" stop-color="#EAF7F1"/>
      <stop offset="100%" stop-color="#CFEEDF"/>
    </linearGradient>
  </defs>

  <circle cx="120" cy="140" r="120" fill="url(#momoBg)"/>

  <!-- coat -->
  <path d="M60 280V190c0-28 27-46 60-46s60 18 60 46v90H60z" fill="#FFFFFF" stroke="#D9E8E0" stroke-width="2"/>
  <path d="M108 150l-8 20 12 14 8-24z" fill="#EAF7F1"/>
  <path d="M132 150l8 20-12 14-8-24z" fill="#EAF7F1"/>
  <circle cx="120" cy="186" r="6" fill="#2FA875"/>

  <!-- neck -->
  <rect x="106" y="128" width="28" height="24" rx="10" fill="#F4C9A8"/>

  <!-- head -->
  <circle cx="120" cy="98" r="46" fill="#FBDCC0"/>

  <!-- hair -->
  <path d="M74 96c-4-34 20-58 46-58s50 24 46 58c-10-12-24-8-34-18-8 12-24 10-32 18-6-6-18-6-26 0z" fill="#3B2A22"/>
  <path d="M78 70c8-6 14-2 16 4-8 2-14 8-16 16-4-8-4-14 0-20z" fill="#3B2A22"/>
  <path d="M162 70c-8-6-14-2-16 4 8 2 14 8 16 16 4-8 4-14 0-20z" fill="#3B2A22"/>

  <!-- face -->
  <circle cx="104" cy="100" r="4.5" fill="#2A2A2A"/>
  <circle cx="136" cy="100" r="4.5" fill="#2A2A2A"/>
  <circle cx="98" cy="112" r="6" fill="#FFB4A0" fill-opacity="0.55"/>
  <circle cx="142" cy="112" r="6" fill="#FFB4A0" fill-opacity="0.55"/>
  <path d="M108 116c4 5 20 5 24 0" stroke="#B5654A" stroke-width="3" stroke-linecap="round" fill="none"/>

</svg>
